<svg version="1.1" id="Layer_1" xmlns="http://www.w3.org/2000/svg" xmlns:xlink="http://www.w3.org/1999/xlink" x="0px" y="0px"
	 width="100%" viewBox="0 0 1024 1024" enable-background="new 0 0 1024 1024" xml:space="preserve">
<path fill="#000000" opacity="1.000000" stroke="none" 
	d="
M136.273285,574.560791 
	C136.190186,516.792847 136.147400,459.469696 136.106155,402.146576 
	C136.099442,392.813446 136.195816,383.478790 136.048035,374.147949 
	C135.990784,370.533478 137.325729,369.061981 140.992096,369.084961 
	C180.815613,369.334564 220.675339,367.773102 260.451813,369.925293 
	C282.980469,371.144226 303.939209,378.134186 320.698975,394.398071 
	C335.556641,408.816101 342.359161,426.702820 343.384155,447.152222 
	C344.428619,467.990021 338.964600,486.766052 325.700012,502.908905 
	C313.080780,518.266357 296.223633,526.999695 277.357635,532.247192 
	C275.142334,532.863342 272.774567,533.075684 270.174408,535.220276 
	C286.790894,554.434875 303.351013,573.584351 319.714355,592.506226 
	C318.676422,594.605530 317.371674,594.260193 316.287476,594.262024 
	C305.121063,594.280762 293.954224,594.205078 282.788300,594.275635 
	C280.250214,594.291626 278.333984,593.500854 276.674622,591.588440 
	C254.070496,565.537170 231.433655,539.514282 208.821350,513.470154 
	C208.411774,512.998413 208.203873,512.351562 207.503326,511.040741 
	C228.269287,509.467377 249.103073,513.195312 269.550140,505.459595 
	C266.068939,501.437195 262.243256,497.406281 262.993530,492.673126 
	C264.119812,485.567780 259.900177,482.128418 255.731110,478.171814 
	C253.435806,475.993530 250.731766,473.986542 249.176529,471.336304 
	C244.468262,463.312836 236.528641,463.357941 228.880493,462.448853 
	C228.556976,462.410400 228.210526,462.444336 227.890518,462.515503 
	C224.160065,463.345062 212.541306,477.524078 212.341095,481.477020 
	C211.966217,488.878998 206.088058,494.356689 198.527756,494.349304 
	C191.248520,494.342194 185.058746,488.432709 184.770020,481.214600 
	C184.501740,474.507690 189.840317,468.365509 196.973892,467.767120 
	C199.757568,467.533569 201.611893,466.407501 203.382111,464.522888 
	C205.662872,462.094757 208.032455,459.746033 210.434967,457.437195 
	C214.638687,453.397430 217.956696,449.624023 218.121796,442.738434 
	C218.370560,432.363464 227.739548,426.099396 238.139893,427.537628 
	C248.787643,429.010071 255.370651,437.185852 253.796524,447.379700 
	C253.438385,449.699005 254.012405,451.166565 255.519379,452.688324 
	C261.733917,458.963684 267.890900,465.296021 274.091797,471.584961 
	C274.889069,472.393555 275.624695,473.474670 276.978485,473.309387 
	C287.443665,472.031860 294.171875,476.636566 297.627228,487.273163 
	C305.809082,478.267120 310.749237,468.544830 311.633575,457.039764 
	C314.244324,423.075134 293.053680,405.789398 263.429810,398.460815 
	C256.969543,396.862701 250.304352,396.360718 243.623901,396.362335 
	C219.957565,396.368103 196.289978,396.474884 172.625870,396.240234 
	C167.555969,396.189941 166.219681,397.769196 166.233688,402.798187 
	C166.405075,464.296906 166.346069,525.796326 166.339951,587.295532 
	C166.339264,594.234253 166.319916,594.233643 159.610748,594.238525 
	C153.610825,594.242859 147.599243,594.021362 141.614761,594.327942 
	C137.051453,594.561707 135.865707,592.864197 136.323837,588.473267 
	C136.787140,584.032776 136.354355,579.498718 136.273285,574.560791 
z"/>
<path fill="#000000" opacity="1.000000" stroke="none" 
	d="
M435.274231,461.999756 
	C435.269440,467.499268 435.144226,472.502838 435.303894,477.497284 
	C435.409637,480.804596 433.913574,481.958649 430.817078,481.886444 
	C426.496399,481.785675 422.170471,481.759277 417.849854,481.848145 
	C413.449524,481.938660 413.809387,478.914062 413.809692,476.025452 
	C413.812714,446.360352 413.807098,416.695282 413.805328,387.030182 
	C413.805084,382.530670 413.823669,378.031097 413.811127,373.531616 
	C413.804749,371.242554 414.459229,369.616547 417.175049,369.683594 
	C435.304077,370.131226 453.531494,368.072205 471.551697,370.726288 
	C489.631561,373.389160 498.931519,383.535095 501.185364,401.342957 
	C503.159393,416.939667 495.349396,430.147552 479.947418,437.274811 
	C478.900269,437.759369 477.878479,438.298706 476.022827,439.221161 
	C485.263397,452.993866 494.364471,466.558624 504.199493,481.217285 
	C495.710114,481.217285 488.341370,481.310577 480.978088,481.150757 
	C479.169861,481.111511 478.446503,479.180359 477.539673,477.794678 
	C470.607483,467.202362 463.455872,456.744934 456.839935,445.958801 
	C454.235596,441.712921 451.309540,440.113342 446.356476,440.269958 
	C435.285889,440.619965 435.278107,440.369263 435.277435,451.500397 
	C435.277222,454.833588 435.275757,458.166748 435.274231,461.999756 
M452.483276,420.666687 
	C457.793854,420.526428 463.121735,421.067474 468.384827,419.679504 
	C476.403992,417.564667 480.020691,412.651703 479.717560,403.872894 
	C479.464386,396.540436 475.116638,391.753021 467.518799,390.319519 
	C457.925110,388.509430 448.244110,389.740509 438.608917,389.404633 
	C435.912415,389.310638 435.231293,390.858215 435.245117,393.217072 
	C435.291046,401.049652 435.346802,408.883911 435.224884,416.714813 
	C435.175964,419.859070 436.620941,420.774109 439.492004,420.686401 
	C443.487885,420.564301 447.490509,420.662231 452.483276,420.666687 
z"/>
<path fill="#000000" opacity="1.000000" stroke="none" 
	d="
M666.037964,399.000000 
	C666.034485,424.490906 666.032593,449.481812 666.024902,474.472717 
	C666.022766,481.423187 666.014832,481.421875 658.865417,481.413635 
	C655.866516,481.410187 652.854553,481.237396 649.871887,481.457672 
	C646.014587,481.742523 644.579285,480.307953 644.641357,476.334259 
	C644.833862,464.008453 644.545044,451.674530 644.785339,439.350403 
	C644.871704,434.923462 643.778748,433.180176 638.966003,433.279175 
	C624.310791,433.580627 609.643250,433.535522 594.985474,433.305756 
	C590.476501,433.235077 588.813354,434.527405 588.916321,439.224243 
	C589.186584,451.546814 588.909302,463.880432 589.031372,476.207825 
	C589.068420,479.947632 587.978333,481.791229 583.897949,481.456604 
	C580.422668,481.171570 576.876770,481.116974 573.413391,481.467377 
	C568.506775,481.963776 567.623047,479.610657 567.652588,475.318542 
	C567.807251,452.827698 567.728638,430.335297 567.730652,407.843414 
	C567.731689,396.847382 567.846191,385.849518 567.668884,374.856354 
	C567.608765,371.126221 568.533020,369.258331 572.662170,369.574097 
	C576.471985,369.865448 580.334473,369.837952 584.149597,369.585205 
	C587.944519,369.333801 589.088196,370.958801 589.047302,374.539673 
	C588.919617,385.700775 589.161804,396.867462 588.934937,408.025360 
	C588.847290,412.334045 590.177856,413.859772 594.625732,413.788391 
	C609.449890,413.550476 624.282471,413.552765 639.106934,413.780548 
	C643.566711,413.849060 644.864685,412.274170 644.776672,407.981720 
	C644.547791,396.823853 644.813110,385.656433 644.647339,374.496338 
	C644.592834,370.825378 645.845703,369.380127 649.546387,369.591339 
	C653.532043,369.818848 657.546875,369.786377 661.537109,369.605652 
	C664.809814,369.457428 666.015259,370.890350 665.997375,374.009674 
	C665.950562,382.172791 666.016479,390.336517 666.037964,399.000000 
z"/>
<path fill="#000000" opacity="1.000000" stroke="none" 
	d="
M825.466919,540.493652 
	C815.493591,538.539551 809.484680,543.067810 809.203308,552.942871 
	C808.890320,563.930664 808.930115,574.934326 809.094788,585.926880 
	C809.156616,590.051575 807.708069,591.501831 803.583435,591.399780 
	C792.314270,591.121094 793.728394,592.477783 793.666016,581.527344 
	C793.594849,569.031555 793.717957,556.534302 793.596924,544.039307 
	C793.556702,539.893555 793.036438,535.751465 792.708252,531.609924 
	C792.494141,528.908325 793.581238,527.543335 796.415466,527.670898 
	C798.410339,527.760803 800.428223,527.828369 802.409180,527.634460 
	C805.938721,527.288818 808.270508,528.317993 808.231140,532.881714 
	C815.439758,526.858887 823.002686,524.263062 831.780701,526.676270 
	C834.869385,527.525391 837.938660,528.577209 840.148132,530.910767 
	C842.689331,533.594666 844.521851,533.708252 847.669067,531.355408 
	C854.008362,526.616150 861.227661,524.600769 869.317017,526.518066 
	C879.254700,528.873535 885.189880,535.684387 885.304138,545.950134 
	C885.454346,559.444275 885.207703,572.943604 885.423096,586.436035 
	C885.489319,590.586060 883.773499,591.462097 880.081604,591.398193 
	C868.999329,591.206421 870.753906,592.009949 870.666687,582.089233 
	C870.584595,572.759399 870.695129,563.427795 870.606018,554.098145 
	C870.515198,544.581177 867.174988,540.289795 860.015625,540.213074 
	C852.231934,540.129578 847.421631,545.411804 847.356201,554.317993 
	C847.279053,564.814270 847.205688,575.313477 847.380615,585.807190 
	C847.443481,589.576782 846.397156,591.215942 842.330811,591.112671 
	C830.181091,590.803894 832.132507,591.490540 832.034180,580.911377 
	C831.942810,571.082031 831.985718,561.251099 832.018311,551.421021 
	C832.034302,546.591125 830.917542,542.470703 825.466919,540.493652 
z"/>
<path fill="#000000" opacity="1.000000" stroke="none" 
	d="
M412.678192,513.028992 
	C412.840973,501.289703 411.322357,502.617706 422.476624,502.729462 
	C432.432983,502.829193 442.434021,501.705475 452.347839,503.474731 
	C471.133423,506.827393 478.127563,517.804443 477.100494,533.877136 
	C476.038879,550.490112 464.672485,560.588928 447.274811,561.255737 
	C442.787231,561.427734 438.269623,561.564453 433.799744,561.244019 
	C429.235748,560.916870 428.092316,562.858154 428.263031,567.083679 
	C428.544952,574.062256 428.220215,581.063171 428.360352,588.050476 
	C428.425262,591.287231 427.184662,592.439453 423.972748,592.396179 
	C410.375427,592.212952 412.796051,593.606445 412.722595,581.429382 
	C412.585999,558.794861 412.680420,536.158936 412.678192,513.028992 
M459.569427,523.088623 
	C457.063599,518.878906 453.177155,516.718140 448.469299,516.434509 
	C442.992157,516.104675 437.483521,516.329712 431.990479,516.218567 
	C429.097473,516.160034 428.301147,517.641357 428.328400,520.269958 
	C428.409607,528.095642 428.442841,535.924133 428.313385,543.748596 
	C428.261047,546.912659 429.745422,547.796387 432.587677,547.712097 
	C436.414398,547.598572 440.247070,547.703857 444.076843,547.670166 
	C458.868896,547.540100 465.419891,537.647217 459.569427,523.088623 
z"/>
<path fill="#000000" opacity="1.000000" stroke="none" 
	d="
M548.223511,538.567627 
	C541.571289,537.897217 536.242065,539.083557 533.290955,545.512817 
	C532.487000,547.264343 522.165649,548.446106 520.167053,546.873779 
	C517.130554,544.484985 518.736145,541.397949 519.879822,538.746765 
	C523.960022,529.288147 532.702576,527.297668 541.533142,525.936157 
	C547.907349,524.953369 554.168823,526.297974 560.002563,528.982056 
	C569.313477,533.265991 571.791138,541.755981 572.132202,550.861450 
	C572.586853,563.000671 572.233887,575.168640 572.351929,587.322998 
	C572.381714,590.391418 571.056946,591.544800 568.156189,591.369019 
	C566.995422,591.298645 565.819092,591.294678 564.661560,591.395386 
	C560.738586,591.736877 557.219910,591.494019 556.981812,585.471008 
	C551.582947,589.541748 546.367615,592.151550 540.265503,592.823975 
	C536.011780,593.292725 531.925110,592.878235 527.981079,591.572632 
	C519.130005,588.642761 513.913818,580.544373 514.794189,571.571960 
	C515.785400,561.471313 522.658142,555.014648 533.715271,553.664246 
	C539.673096,552.936646 545.640259,552.673157 551.638733,552.691406 
	C556.534241,552.706299 557.516418,551.446899 556.547791,546.647400 
	C555.667725,542.286438 552.925171,539.664673 548.223511,538.567627 
M530.631592,574.737244 
	C531.632629,577.581665 533.521423,579.607483 536.423218,580.433960 
	C545.406860,582.992493 555.416809,576.111511 556.471130,566.812378 
	C556.738464,564.454895 555.913513,563.292664 553.550720,563.379150 
	C548.439819,563.566040 543.295105,562.840454 538.227112,564.216614 
	C532.558105,565.755859 530.644592,568.051331 530.631592,574.737244 
z"/>
<path fill="#000000" opacity="1.000000" stroke="none" 
	d="
M739.208679,555.391479 
	C739.628540,575.005066 731.178406,587.498779 714.929077,591.807007 
	C699.233215,595.968506 683.277344,588.499573 676.759155,573.939819 
	C669.810547,558.418579 674.632507,539.415527 687.621094,531.133606 
	C701.706116,522.152588 720.491943,524.595154 731.315186,536.866516 
	C735.869324,542.030090 737.920837,548.320862 739.208679,555.391479 
M691.757202,571.618530 
	C696.156982,577.600769 701.877075,580.807373 709.396057,579.135681 
	C721.963867,576.341492 727.752197,561.710205 721.470764,549.075317 
	C717.805298,541.702393 711.213013,538.241577 703.019226,539.388489 
	C696.832153,540.254578 690.983032,546.238831 689.415466,553.086304 
	C687.991394,559.306702 688.505981,565.258728 691.757202,571.618530 
z"/>
<path fill="#000000" opacity="1.000000" stroke="none" 
	d="
M522.653564,375.104858 
	C522.230896,371.079926 523.499878,369.334869 527.353271,369.590210 
	C530.998718,369.831726 534.690491,369.863647 538.329773,369.578186 
	C542.405396,369.258484 543.405762,371.069489 543.394775,374.817902 
	C543.295471,408.603882 543.290649,442.390411 543.384277,476.176392 
	C543.394592,479.900330 542.482849,481.778137 538.363647,481.451385 
	C534.724854,481.162720 531.027222,481.158691 527.388367,481.445374 
	C523.032104,481.788574 522.593567,479.427032 522.605164,475.954346 
	C522.687927,451.155823 522.651062,426.356934 522.651917,401.558136 
	C522.652222,392.903503 522.651611,384.248901 522.653564,375.104858 
z"/>
<path fill="#000000" opacity="1.000000" stroke="none" 
	d="
M628.778259,530.216064 
	C629.758423,526.717834 632.349243,527.818054 634.296814,527.727417 
	C636.797363,527.611023 637.902588,526.592224 637.990601,524.105652 
	C638.066772,521.950989 638.421875,519.807007 638.632019,517.656128 
	C639.449219,509.292786 644.011658,503.563477 652.338379,502.094666 
	C657.345276,501.211487 662.647949,501.435516 667.756226,501.875336 
	C671.888489,502.231140 670.004028,505.991638 670.189392,508.321045 
	C670.368347,510.569672 670.509460,513.262756 666.944702,513.275940 
	C664.780579,513.283936 662.616333,513.300781 660.452271,513.326416 
	C656.258728,513.376160 654.017639,515.681946 653.429321,519.655823 
	C652.371460,526.801575 653.153076,527.643372 660.488281,527.658875 
	C661.320740,527.660645 662.153198,527.654907 662.985596,527.660889 
	C668.588623,527.701050 671.434937,532.509521 668.945374,537.634705 
	C667.980774,539.620361 666.198425,539.194031 664.613159,539.262878 
	C653.325317,539.752991 653.326111,539.739502 653.318115,551.160156 
	C653.310120,562.647766 653.180176,574.137146 653.356567,585.621887 
	C653.414551,589.395386 652.316833,590.966187 648.332153,591.036072 
	C637.948975,591.218079 637.987610,591.367493 638.007935,580.839355 
	C638.031067,568.852417 637.888672,556.864441 638.016907,544.878967 
	C638.058350,541.000000 637.071106,538.767639 632.697876,539.305725 
	C629.676697,539.677368 628.453125,538.118774 628.664917,535.176270 
	C628.772278,533.684875 628.713562,532.181396 628.778259,530.216064 
z"/>
<path fill="#000000" opacity="1.000000" stroke="none" 
	d="
M605.357422,523.593628 
	C605.205444,526.556458 606.363708,527.730225 608.908203,527.654175 
	C611.072083,527.589417 613.259216,527.842346 615.401672,527.621216 
	C619.839661,527.163147 621.442627,528.729797 621.510925,533.433533 
	C621.586304,538.626465 619.395264,539.434387 614.944946,539.344360 
	C604.042786,539.123840 605.440613,538.132935 605.359436,548.851990 
	C605.307678,555.682983 605.321960,562.514832 605.358093,569.346008 
	C605.396057,576.536255 607.395874,578.611938 614.412964,578.880737 
	C620.481812,579.113220 623.138306,583.404968 620.903320,589.274292 
	C620.427368,590.524109 619.625427,591.242981 618.346008,591.260071 
	C613.029663,591.331360 607.658325,592.050171 602.419128,590.810852 
	C594.691345,588.982788 590.822449,583.585754 590.695374,574.457947 
	C590.558533,564.629272 590.538208,554.795349 590.709045,544.967896 
	C590.775635,541.135315 589.964233,538.724060 585.515015,539.333496 
	C580.789368,539.980835 580.590637,537.044617 580.596436,533.498230 
	C580.602173,529.942505 580.833618,527.052307 585.551697,527.674194 
	C589.486938,528.192932 590.707520,526.386475 590.726624,522.507507 
	C590.789673,509.696136 590.920166,509.696228 603.972534,510.749756 
	C604.126099,510.762115 604.271667,510.873016 604.743774,511.078278 
	C606.039673,514.908508 605.033264,519.079407 605.357422,523.593628 
z"/>
<path fill="#000000" opacity="1.000000" stroke="none" 
	d="
M504.167542,570.999268 
	C504.154053,576.494812 504.032837,581.493591 504.170105,586.485229 
	C504.259399,589.733032 502.802429,590.791443 499.713959,590.986084 
	C488.687561,591.681213 488.695007,591.761475 488.695618,580.646362 
	C488.696930,556.666382 488.816345,532.685242 488.594330,508.707306 
	C488.549500,503.866730 490.031586,502.365204 494.823914,502.542480 
	C505.242249,502.927979 504.108582,501.630402 504.140381,512.048401 
	C504.199860,531.531921 504.165039,551.015747 504.167542,570.999268 
z"/>
<path fill="#000000" opacity="1.000000" stroke="none" 
	d="
M749.633301,584.867920 
	C749.234253,567.746765 750.430725,551.089478 748.830811,534.457764 
	C748.191772,527.815247 748.542664,527.661804 755.100464,527.710571 
	C757.719727,527.730042 760.409607,527.190002 763.136536,528.307922 
	C763.281372,529.941406 763.425720,531.568481 763.644531,534.036133 
	C767.841553,529.759033 772.317932,526.902344 777.775146,525.956116 
	C783.138794,525.026062 784.282043,525.966797 784.316406,531.437256 
	C784.331055,533.768494 784.287415,536.100952 784.217224,538.431274 
	C784.203186,538.897766 783.948608,539.357056 783.805786,539.816956 
	C782.048706,540.862671 780.177490,540.285522 778.395996,540.389709 
	C768.897827,540.945129 764.481812,545.411865 764.384338,554.951172 
	C764.278870,565.279297 764.204041,575.612671 764.431274,585.936768 
	C764.518616,589.904419 763.158264,591.470154 759.263245,591.013245 
	C757.948120,590.859070 756.580505,590.833069 755.271240,591.007202 
	C750.849243,591.595276 749.054077,589.686096 749.633301,584.867920 
z"/>
<path fill="#000000" opacity="1.000000" stroke="none" 
	d="
M245.626328,636.057129 
	C256.195099,632.545959 262.272369,636.912048 262.327087,647.668030 
	C262.353363,652.834290 262.245544,658.002136 262.341980,663.166565 
	C262.395935,666.056030 261.410309,667.433411 258.296570,667.384460 
	C255.353516,667.338074 254.613617,665.908325 254.650925,663.323120 
	C254.723068,658.324646 254.694290,653.323669 254.634491,648.324524 
	C254.589523,644.565247 253.160019,641.461975 248.980362,641.584473 
	C245.063354,641.699219 242.483856,644.138794 242.346863,648.309570 
	C242.193710,652.971313 242.212814,657.641907 242.283157,662.306763 
	C242.328354,665.303528 241.952911,667.443420 238.046295,667.409729 
	C233.977280,667.374634 234.007477,664.907898 234.046204,662.087524 
	C234.098831,658.254944 234.133484,654.421387 234.111984,650.588623 
	C234.073898,643.798340 232.476929,641.278748 228.380234,641.416748 
	C224.400894,641.550842 222.277115,644.707581 222.236481,650.588745 
	C222.205383,655.088074 222.189835,659.587585 222.184479,664.086975 
	C222.181259,666.778381 220.561127,667.371338 218.242676,667.372253 
	C215.998123,667.373169 213.992111,666.984802 214.215851,664.251831 
	C214.975220,654.976257 214.343842,645.699158 213.874496,636.366943 
	C217.338623,635.356812 220.119568,634.971008 222.346252,637.652771 
	C230.546112,633.227417 233.424789,633.439819 240.789185,639.082825 
	C242.234283,638.161194 243.754715,637.191528 245.626328,636.057129 
z"/>
<path fill="#000000" opacity="1.000000" stroke="none" 
	d="
M751.772156,638.474609 
	C754.853455,636.452576 757.595642,634.666870 761.173340,634.644653 
	C767.555725,634.605042 772.028198,638.477295 772.273376,644.933472 
	C772.506958,651.085938 772.266296,657.255066 772.332581,663.415771 
	C772.361084,666.067444 771.433167,667.388184 768.573242,667.379944 
	C765.820190,667.371948 764.644165,666.294556 764.686218,663.533691 
	C764.762329,658.539246 764.662292,653.542358 764.685608,648.546753 
	C764.702942,644.824280 763.676270,641.829163 759.392761,641.476562 
	C755.826660,641.183167 752.597229,644.363281 752.414978,648.483826 
	C752.201660,653.304443 752.276611,658.140808 752.333191,662.969177 
	C752.364746,665.666077 751.776794,667.383423 748.500183,667.393372 
	C745.252686,667.403259 744.594727,665.776184 744.643555,663.031494 
	C744.729431,658.203918 744.740723,653.371338 744.621582,648.544800 
	C744.526184,644.681335 743.186462,641.360474 738.659729,641.525269 
	C734.505127,641.676453 732.511230,644.565125 732.389648,648.555664 
	C732.232422,653.713867 732.266541,658.878967 732.278992,664.040955 
	C732.285461,666.737671 730.744507,667.350830 728.408264,667.359314 
	C725.999084,667.368103 724.665100,666.582825 724.680725,663.936218 
	C724.734680,654.800232 724.701477,645.663757 724.701477,636.757202 
	C725.272949,636.325500 725.529968,635.962341 725.785034,635.963684 
	C730.870361,635.990662 735.880005,636.542847 740.970520,634.829163 
	C744.929138,633.496399 747.891418,637.369507 751.772156,638.474609 
z"/>
<path fill="#000000" opacity="1.000000" stroke="none" 
	d="
M521.520020,635.986816 
	C524.386230,638.258667 526.531677,638.592346 529.803833,636.701538 
	C538.859802,631.468689 547.005859,636.384094 547.268616,646.861511 
	C547.402161,652.186157 547.252380,657.517395 547.304871,662.844910 
	C547.330261,665.427124 547.033081,667.338196 543.641174,667.404053 
	C540.005859,667.474670 539.597351,665.475891 539.637817,662.650879 
	C539.706970,657.823425 539.661499,652.993896 539.625854,648.165527 
	C539.599548,644.598572 538.238708,641.683044 534.366943,641.541504 
	C530.357117,641.394836 527.688660,643.764221 527.420776,647.867188 
	C527.128540,652.344543 527.321106,656.853271 527.290894,661.348206 
	C527.248718,667.633484 526.900940,667.899170 519.617493,666.732483 
	C519.617493,662.416138 519.625122,657.981018 519.614075,653.545898 
	C519.609070,651.548401 519.778259,649.520325 519.494202,647.560425 
	C519.004028,644.179138 517.532166,641.381531 513.542358,641.445251 
	C509.687805,641.506775 507.750488,644.130798 507.495941,647.541382 
	C507.125031,652.510315 507.306305,657.523865 507.336426,662.517883 
	C507.352661,665.212830 507.278992,667.416504 503.516235,667.406677 
	C499.796844,667.396912 499.631592,665.233093 499.642548,662.521240 
	C499.677521,653.877991 499.655548,645.234619 499.655548,636.345215 
	C502.663513,635.504639 505.399109,634.588013 507.576080,637.800293 
	C511.795959,635.100403 516.200745,633.455994 521.520020,635.986816 
z"/>
<path fill="#000000" opacity="1.000000" stroke="none" 
	d="
M609.210083,637.069092 
	C612.039185,634.223145 610.692078,630.781738 610.832092,627.609436 
	C610.967834,624.535950 611.424255,622.593018 615.233887,622.618591 
	C619.274475,622.645752 619.291260,625.020996 619.279907,627.881409 
	C619.234192,639.374817 619.279724,650.868652 619.222778,662.361938 
	C619.199036,667.150452 616.039062,669.025757 611.747742,666.635559 
	C610.554138,665.970703 609.939819,665.024109 608.410950,665.982849 
	C602.760193,669.526428 597.101868,668.935364 592.235779,664.752319 
	C586.821289,660.098022 585.627625,653.660583 587.041626,646.941406 
	C589.139526,636.972412 598.712769,631.161926 609.210083,637.069092 
M597.067993,658.496582 
	C599.903259,661.327454 603.291382,661.557434 606.711060,660.078918 
	C610.168884,658.583862 611.072815,655.154480 611.496155,651.862793 
	C612.127258,646.955750 608.581970,642.210449 604.173035,641.492554 
	C599.594604,640.747070 596.116150,643.538330 594.722595,648.959167 
	C593.869385,652.277893 594.882202,655.152588 597.067993,658.496582 
z"/>
<path fill="#000000" opacity="1.000000" stroke="none" 
	d="
M302.226562,652.784546 
	C301.172882,660.598389 297.857574,666.024414 290.066132,667.894897 
	C286.168915,668.830505 282.950531,666.817322 279.194122,665.816040 
	C277.400299,669.096558 278.537170,672.625977 278.301239,675.969666 
	C278.083832,679.051392 276.190643,679.296875 273.834351,679.291138 
	C271.592865,679.285645 269.848755,678.848938 269.852173,676.070129 
	C269.868652,662.773682 269.859558,649.477234 269.859558,635.875610 
	C272.678589,636.002075 275.345886,634.157898 277.380188,637.059204 
	C278.080353,638.057678 278.692230,637.502930 279.476044,637.236267 
	C293.850464,632.346069 301.765076,637.612061 302.226562,652.784546 
M278.165619,655.234009 
	C279.370300,658.720764 281.623871,660.710815 285.498322,660.779297 
	C288.631104,660.834778 291.117584,659.715515 292.501556,656.972717 
	C294.669281,652.676636 294.632690,648.254395 291.703033,644.318848 
	C289.782806,641.739380 286.974152,640.767395 283.745514,641.880371 
	C278.870148,643.560974 277.668915,647.565857 277.424683,652.101868 
	C277.381897,652.896301 277.727509,653.711609 278.165619,655.234009 
z"/>
<path fill="#000000" opacity="1.000000" stroke="none" 
	d="
M779.651672,652.010254 
	C779.651001,646.391296 779.651001,641.270081 779.651001,635.928406 
	C783.006775,635.579895 786.053406,634.624695 788.277344,637.749695 
	C796.066895,633.307312 802.630188,633.784790 807.305847,639.090393 
	C812.665161,645.171753 813.122131,656.419678 808.266724,662.742188 
	C803.873535,668.462952 796.732666,669.323242 788.003784,665.089783 
	C788.003784,668.432495 787.951782,671.705200 788.019775,674.975403 
	C788.077026,677.729126 787.266357,679.319885 784.076599,679.331116 
	C780.877441,679.342407 779.601135,678.137024 779.646606,674.933716 
	C779.752563,667.459900 779.662842,659.983337 779.651672,652.010254 
M793.158691,660.571289 
	C794.481079,660.611572 795.856873,660.908081 797.116272,660.645813 
	C801.526611,659.727478 803.289856,656.528137 803.627319,652.374451 
	C804.006592,647.707275 802.898254,643.596802 798.007141,641.897217 
	C793.969604,640.494141 790.857788,642.448853 788.717224,645.801819 
	C785.583557,650.710327 787.237244,656.928833 793.158691,660.571289 
z"/>
<path fill="#000000" opacity="1.000000" stroke="none" 
	d="
M156.741318,667.361694 
	C143.990570,668.838867 134.517136,659.359070 132.830765,650.111450 
	C130.542709,637.564331 135.851837,627.554382 146.811264,623.465454 
	C157.899109,619.328613 170.093994,624.830139 173.085709,635.583679 
	C170.460220,636.773804 168.091599,639.673340 165.155136,635.679077 
	C160.403503,629.215820 155.096069,627.685547 148.820145,630.748169 
	C142.590683,633.788269 138.959183,641.794006 140.802612,648.462952 
	C142.551056,654.788269 146.466965,659.157410 153.008255,660.226013 
	C158.497711,661.122742 162.547073,658.322510 165.350311,653.619995 
	C167.398376,650.184265 169.773682,652.657593 171.764526,653.585144 
	C174.392227,654.809387 172.753326,656.648682 171.819275,658.123901 
	C168.414719,663.500732 163.599625,666.703552 156.741318,667.361694 
z"/>
<path fill="#000000" opacity="1.000000" stroke="none" 
	d="
M368.517456,660.435181 
	C368.431000,663.018616 370.414612,665.836426 367.348267,667.032166 
	C365.059509,667.924622 362.404541,667.877075 360.906250,664.893250 
	C356.544861,667.290100 352.216248,669.276428 347.150635,667.676331 
	C342.787537,666.298218 339.784149,662.577820 340.040344,658.046387 
	C340.302032,653.417786 342.746460,650.148865 347.339569,649.090576 
	C350.556152,648.349487 353.903992,648.164001 357.199677,647.786621 
	C358.701843,647.614563 360.344269,647.702759 360.546631,645.637451 
	C360.734863,643.716492 359.692352,642.335144 358.018127,641.768494 
	C355.070435,640.770935 352.026642,640.470825 349.846008,643.344788 
	C347.646362,646.243835 344.430328,646.331665 342.572540,644.282837 
	C340.661957,642.175720 342.906525,639.559326 344.878906,637.999634 
	C350.231842,633.766602 356.294830,633.660461 362.328003,636.036377 
	C367.652405,638.133118 368.537170,642.872742 368.409332,648.012939 
	C368.310211,652.000061 368.443695,655.993042 368.517456,660.435181 
M357.171082,653.412292 
	C355.697571,653.556946 354.186218,653.542297 352.758881,653.881348 
	C350.239471,654.479858 347.664368,655.472778 348.387024,658.743835 
	C349.170990,662.292358 352.210236,661.948242 354.835052,661.521423 
	C357.760468,661.045898 359.261169,658.812744 360.179077,656.192810 
	C360.902008,654.129456 359.705841,653.513977 357.171082,653.412292 
z"/>
<path fill="#000000" opacity="1.000000" stroke="none" 
	d="
M851.118774,661.164429 
	C852.617676,660.364380 854.023865,659.931335 854.853027,658.989990 
	C857.664917,655.797485 860.231812,656.729187 862.945984,658.898926 
	C860.116577,666.084717 851.305725,669.767212 843.418396,667.234924 
	C835.336365,664.640137 830.725586,655.416077 833.090088,646.572510 
	C835.342834,638.146423 842.857300,633.216614 851.270996,634.843689 
	C859.176575,636.372314 865.146729,643.455261 862.793579,653.454285 
	C855.659180,653.454285 848.287537,653.454285 840.892090,653.454285 
	C841.132507,659.495850 844.355103,661.789795 851.118774,661.164429 
M848.502441,641.129883 
	C844.623718,641.416443 841.613525,642.676025 841.207947,647.605896 
	C846.218567,647.473022 850.881958,648.346252 855.646484,646.974976 
	C854.851013,642.915894 852.577881,641.450867 848.502441,641.129883 
z"/>
<path fill="#000000" opacity="1.000000" stroke="none" 
	d="
M463.848297,668.116821 
	C454.140076,667.041077 448.511353,662.321350 447.684662,654.951050 
	C446.536621,644.715576 449.775330,638.434204 457.773193,635.578369 
	C463.420166,633.561951 468.639862,634.616699 473.234253,638.323975 
	C477.515167,641.778259 478.956207,646.971313 477.631378,653.337341 
	C470.200226,654.455566 462.554199,652.557495 455.026459,653.998230 
	C456.865173,661.557739 463.437225,663.739441 469.489532,659.064392 
	C473.209229,656.191040 473.209259,656.191101 478.022522,659.121704 
	C475.272003,664.996033 470.146576,667.088196 463.848297,668.116821 
M465.214691,647.713623 
	C466.921661,647.417603 468.906738,648.342529 470.433563,646.436523 
	C469.356873,642.481018 466.565948,640.962036 462.660828,641.122620 
	C458.924591,641.276245 456.613220,643.137817 455.786865,647.135925 
	C458.770386,648.136292 461.591766,647.518921 465.214691,647.713623 
z"/>
<path fill="#000000" opacity="1.000000" stroke="none" 
	d="
M556.162292,665.991638 
	C552.501953,662.465149 551.768494,658.645996 553.592407,654.363892 
	C555.301392,650.351746 558.688232,648.982727 562.746094,648.620972 
	C566.182800,648.314636 569.606689,647.863647 573.018372,647.478699 
	C573.632568,644.733948 572.877014,642.640015 570.752991,641.716492 
	C568.450439,640.715393 565.840332,640.732117 563.625916,642.340332 
	C562.701172,643.011902 562.101685,644.185791 561.129089,644.725281 
	C559.299438,645.740295 556.982361,645.970398 555.511536,644.586914 
	C553.714966,642.897095 554.938599,640.801208 556.330383,639.320679 
	C560.623413,634.753662 565.966736,633.989807 571.883057,635.169861 
	C577.595032,636.309143 580.666809,639.879150 581.009827,645.445496 
	C581.397522,651.737244 581.334351,658.066345 581.219482,664.374756 
	C581.169678,667.110352 577.355530,668.887329 574.892883,666.833313 
	C572.730225,665.029602 571.607117,665.906128 569.826965,666.711975 
	C565.335632,668.745056 560.839783,668.865173 556.162292,665.991638 
M566.199707,661.650208 
	C570.340393,660.773743 573.159302,658.884827 572.317383,653.690125 
	C569.621216,653.687927 567.211121,653.071289 564.727356,653.947021 
	C562.623474,654.688843 560.380554,655.341675 560.489868,658.071777 
	C560.612244,661.125732 562.879333,661.710205 566.199707,661.650208 
z"/>
<path fill="#000000" opacity="1.000000" stroke="none" 
	d="
M640.219727,668.057983 
	C628.742859,665.464844 623.917297,658.287109 625.778015,647.146545 
	C627.154175,638.907227 635.739380,633.137695 644.060242,634.860229 
	C652.961182,636.702820 657.708496,644.179077 655.439941,653.590088 
	C648.176392,653.590088 640.753357,653.590088 633.229370,653.590088 
	C634.721130,661.550720 641.188843,663.777344 647.482117,659.044922 
	C651.234802,656.223083 651.234802,656.223083 656.005798,659.159180 
	C652.632202,665.259888 647.279175,667.738953 640.219727,668.057983 
M634.466248,644.706299 
	C634.004883,645.757812 633.225403,647.355408 634.938477,647.461426 
	C639.419983,647.738647 643.991272,648.277771 648.559937,647.062012 
	C646.016296,640.053833 640.310730,639.065002 634.466248,644.706299 
z"/>
<path fill="#000000" opacity="1.000000" stroke="none" 
	d="
M190.324844,668.191895 
	C182.032349,666.600159 177.068283,662.006653 175.956879,653.989014 
	C175.058029,647.504761 176.966232,641.754700 182.383423,637.713501 
	C187.876419,633.615845 195.757568,633.547913 201.585144,637.305725 
	C208.510056,641.771179 209.281754,648.699219 208.114700,655.813171 
	C207.051010,662.296997 202.582489,666.206604 196.140060,667.620544 
	C194.381393,668.006531 192.545792,668.042053 190.324844,668.191895 
M197.290298,643.140503 
	C191.870392,640.158997 187.556534,641.071838 184.931000,645.755798 
	C181.910599,651.144165 183.607605,657.915710 188.633286,660.529236 
	C192.319550,662.446289 197.624924,660.738770 199.570221,656.552979 
	C201.668945,652.037048 201.600143,647.511719 197.290298,643.140503 
z"/>
<path fill="#000000" opacity="1.000000" stroke="none" 
	d="
M376.792755,651.001343 
	C376.793030,645.875549 376.793030,641.248108 376.793030,636.441223 
	C380.156403,635.402466 383.032959,634.595459 385.256683,637.705322 
	C386.876129,636.979309 388.347992,636.202271 389.898590,635.643860 
	C398.218842,632.647156 405.310913,636.752747 406.096375,645.511108 
	C406.643707,651.614685 406.227631,657.803162 406.279724,663.953369 
	C406.301880,666.570984 404.890167,667.322449 402.495453,667.368774 
	C399.747589,667.421814 398.579773,666.332825 398.642975,663.551697 
	C398.744965,659.065063 398.727051,654.572205 398.621246,650.085205 
	C398.487183,644.399963 396.393768,641.560059 392.444305,641.428101 
	C387.941467,641.277710 385.153534,644.370056 384.961700,650.050354 
	C384.810272,654.534424 384.849396,659.028564 384.934143,663.515808 
	C384.993622,666.665405 383.333344,667.424133 380.535736,667.404541 
	C377.735138,667.384827 376.676544,666.163940 376.740662,663.470215 
	C376.835602,659.481934 376.782532,655.490112 376.792755,651.001343 
z"/>
<path fill="#000000" opacity="1.000000" stroke="none" 
	d="
M697.961914,637.978638 
	C699.860840,640.047180 700.837524,642.060608 700.416809,644.757690 
	C697.565918,645.510193 695.017822,646.074890 692.953430,642.998718 
	C691.706116,641.140137 689.666687,640.116882 687.276672,640.767273 
	C685.461243,641.261353 683.600098,642.072571 683.587463,644.273682 
	C683.574524,646.536072 685.421448,647.236816 687.322449,647.566284 
	C689.775330,647.991394 692.262207,648.241699 694.695618,648.752563 
	C698.234924,649.495789 700.571899,651.484985 701.507935,655.194275 
	C702.474121,659.023071 701.397400,662.185120 698.746582,664.751465 
	C693.159851,670.160034 681.699402,668.845886 677.429077,662.359863 
	C676.409363,660.811035 674.512268,658.647217 677.001160,657.247375 
	C678.831177,656.218079 681.711914,655.666565 683.236877,658.213623 
	C684.932800,661.046265 687.227478,662.028442 690.348511,661.631714 
	C692.384399,661.372925 693.975159,660.290222 694.273315,658.345459 
	C694.621033,656.077332 692.702637,655.174316 690.873962,654.732788 
	C688.455383,654.148743 685.984375,653.752014 683.517517,653.405029 
	C679.182861,652.795410 676.434387,650.408264 675.850342,646.099121 
	C675.249695,641.667297 677.214661,638.155701 681.187317,636.254395 
	C686.862732,633.538147 692.477905,633.917664 697.961914,637.978638 
z"/>
<path fill="#000000" opacity="1.000000" stroke="none" 
	d="
M418.263611,638.121094 
	C426.468262,631.417358 441.922119,634.715393 442.873199,646.339233 
	C439.602081,647.748108 437.039795,648.656677 434.472382,644.328003 
	C431.397156,639.143127 424.229034,640.070984 421.553711,645.585205 
	C419.608307,649.594849 419.648041,653.628845 422.192383,657.435669 
	C423.917877,660.017273 426.379639,661.121155 429.480957,660.850586 
	C431.201080,660.700439 432.876678,660.253845 433.956787,658.916748 
	C436.969208,655.187622 439.921051,656.747070 443.042297,658.554321 
	C440.550232,664.414062 434.700989,668.403320 428.459076,668.172913 
	C421.781342,667.926453 416.671356,664.895691 413.896667,658.581116 
	C410.913452,651.792114 412.492523,644.091431 418.263611,638.121094 
z"/>
<path fill="#000000" opacity="1.000000" stroke="none" 
	d="
M818.651855,638.004150 
	C818.659729,633.842651 818.751526,630.178040 818.648865,626.518921 
	C818.570984,623.740295 819.768433,622.686157 822.511047,622.678345 
	C825.297852,622.670471 826.354370,623.826660 826.339539,626.557190 
	C826.272827,638.875427 826.274780,651.194275 826.316589,663.512695 
	C826.325806,666.230530 825.242065,667.386169 822.448608,667.376038 
	C819.643616,667.365845 818.632812,666.188293 818.655457,663.473328 
	C818.724670,655.150574 818.662903,646.826782 818.651855,638.004150 
z"/>
<path fill="#000000" opacity="1.000000" stroke="none" 
	d="
M316.337372,645.999878 
	C316.324280,652.157410 316.256927,657.815552 316.322327,663.472229 
	C316.353516,666.170593 315.308502,667.380859 312.503571,667.382385 
	C309.704376,667.383972 308.680267,666.200500 308.692780,663.486328 
	C308.749512,651.173096 308.747223,638.859253 308.680695,626.546021 
	C308.665894,623.804443 309.757263,622.673767 312.518768,622.661377 
	C315.295715,622.648987 316.382874,623.785522 316.345642,626.530762 
	C316.259918,632.852661 316.330475,639.176758 316.337372,645.999878 
z"/>
<path fill="#000000" opacity="1.000000" stroke="none" 
	d="
M714.729736,635.132996 
	C717.193787,635.928467 717.083862,637.680115 717.086304,639.333862 
	C717.097717,647.124084 717.046875,654.914612 717.095703,662.704468 
	C717.113892,665.602905 716.382812,667.397339 712.936157,667.416931 
	C709.447449,667.436768 708.824829,665.653931 708.861633,662.729065 
	C708.955383,655.271423 709.055542,647.806580 708.820251,640.355042 
	C708.689758,636.222534 710.192444,634.466431 714.729736,635.132996 
z"/>
<path fill="#000000" opacity="1.000000" stroke="none" 
	d="
M329.962891,667.330566 
	C327.121979,667.499756 325.665039,666.683350 325.674347,664.026001 
	C325.704041,655.548279 325.729614,647.069946 325.653351,638.592773 
	C325.626312,635.586182 327.417725,635.054260 329.826691,634.943420 
	C332.475677,634.821655 333.321625,636.219788 333.312378,638.619812 
	C333.280396,646.931458 333.295624,655.243286 333.296753,663.555054 
	C333.297028,665.539551 332.976379,667.268494 329.962891,667.330566 
z"/>
<path fill="#000000" opacity="1.000000" stroke="none" 
	d="
M328.960510,622.753235 
	C332.458618,623.161133 334.347717,624.851135 334.153961,628.025452 
	C333.998199,630.577332 332.566956,632.433228 329.768799,632.609802 
	C327.299530,632.765686 325.451538,631.543091 324.882935,629.195862 
	C324.131866,626.095154 324.905853,623.533813 328.960510,622.753235 
z"/>
<path fill="#000000" opacity="1.000000" stroke="none" 
	d="
M709.638123,631.270630 
	C707.069580,628.334412 707.558838,625.871094 710.106750,623.760010 
	C712.018372,622.175964 714.116333,622.363892 715.944031,623.936829 
	C717.906860,625.626038 718.510132,627.779602 717.091675,630.093262 
	C715.266785,633.070007 712.758850,633.267944 709.638123,631.270630 
z"/>
</svg>